<mxfile host="app.diagrams.net" modified="2024-02-24T09:32:15.326Z" agent="Mozilla/5.0 (Windows NT 10.0; Win64; x64) AppleWebKit/537.36 (KHTML, like Gecko) Chrome/122.0.0.0 Safari/537.36" etag="Ctzw2KOVJdUxyGLfTH2Q" version="23.0.2" type="device">
  <diagram id="Fgq1kFbda6Qcx7QnJO26" name="gml-raptor objects">
    <mxGraphModel dx="2261" dy="758" grid="1" gridSize="10" guides="1" tooltips="1" connect="1" arrows="1" fold="1" page="1" pageScale="1" pageWidth="827" pageHeight="1169" background="#000000" math="0" shadow="0">
      <root>
        <mxCell id="0" />
        <mxCell id="1" parent="0" />
        <mxCell id="1dqqtLo0ICrxFf-IUxEB-22" value="" style="edgeStyle=orthogonalEdgeStyle;shape=connector;rounded=1;orthogonalLoop=1;jettySize=auto;html=1;labelBackgroundColor=default;fontFamily=Helvetica;fontSize=12;fontColor=#FFFFFF;endArrow=classic;strokeColor=#FFFF66;strokeWidth=2;exitX=0.5;exitY=0;exitDx=0;exitDy=0;" parent="1" source="1dqqtLo0ICrxFf-IUxEB-19" target="1dqqtLo0ICrxFf-IUxEB-21" edge="1">
          <mxGeometry relative="1" as="geometry" />
        </mxCell>
        <mxCell id="1dqqtLo0ICrxFf-IUxEB-25" style="edgeStyle=orthogonalEdgeStyle;shape=connector;rounded=1;orthogonalLoop=1;jettySize=auto;html=1;exitX=0.5;exitY=0;exitDx=0;exitDy=0;entryX=0.5;entryY=1;entryDx=0;entryDy=0;labelBackgroundColor=default;fontFamily=Helvetica;fontSize=12;fontColor=#FFFFFF;endArrow=classic;strokeColor=#FFFF66;strokeWidth=2;" parent="1" source="1dqqtLo0ICrxFf-IUxEB-19" target="1dqqtLo0ICrxFf-IUxEB-23" edge="1">
          <mxGeometry relative="1" as="geometry" />
        </mxCell>
        <mxCell id="hVP8yvyoXI02nTNWTHge-5" style="edgeStyle=orthogonalEdgeStyle;shape=connector;rounded=1;orthogonalLoop=1;jettySize=auto;html=1;exitX=0.5;exitY=0;exitDx=0;exitDy=0;entryX=0.5;entryY=1;entryDx=0;entryDy=0;labelBackgroundColor=default;strokeColor=#FFFF66;strokeWidth=2;align=center;verticalAlign=middle;fontFamily=Helvetica;fontSize=12;fontColor=#FFFFFF;endArrow=classic;" edge="1" parent="1" source="1dqqtLo0ICrxFf-IUxEB-19" target="hVP8yvyoXI02nTNWTHge-1">
          <mxGeometry relative="1" as="geometry" />
        </mxCell>
        <mxCell id="1dqqtLo0ICrxFf-IUxEB-19" value="&lt;font face=&quot;Lucida Console&quot;&gt;_baseControl&lt;/font&gt;" style="rounded=1;whiteSpace=wrap;html=1;fillColor=#003300;strokeColor=#B266FF;fontColor=#FFFFFF;strokeWidth=2;" parent="1" vertex="1">
          <mxGeometry x="249" y="700" width="120" height="60" as="geometry" />
        </mxCell>
        <mxCell id="1dqqtLo0ICrxFf-IUxEB-30" value="" style="edgeStyle=orthogonalEdgeStyle;shape=connector;rounded=1;orthogonalLoop=1;jettySize=auto;html=1;labelBackgroundColor=default;fontFamily=Helvetica;fontSize=12;fontColor=#FFFFFF;endArrow=classic;strokeColor=#FFFF66;strokeWidth=2;exitX=0.5;exitY=0;exitDx=0;exitDy=0;" parent="1" source="1dqqtLo0ICrxFf-IUxEB-21" target="1dqqtLo0ICrxFf-IUxEB-29" edge="1">
          <mxGeometry relative="1" as="geometry" />
        </mxCell>
        <mxCell id="1dqqtLo0ICrxFf-IUxEB-32" style="edgeStyle=orthogonalEdgeStyle;shape=connector;rounded=1;orthogonalLoop=1;jettySize=auto;html=1;exitX=0.5;exitY=0;exitDx=0;exitDy=0;entryX=0.5;entryY=1;entryDx=0;entryDy=0;labelBackgroundColor=default;fontFamily=Helvetica;fontSize=12;fontColor=#FFFFFF;endArrow=classic;strokeColor=#FFFF66;strokeWidth=2;" parent="1" source="1dqqtLo0ICrxFf-IUxEB-21" target="1dqqtLo0ICrxFf-IUxEB-31" edge="1">
          <mxGeometry relative="1" as="geometry" />
        </mxCell>
        <mxCell id="1dqqtLo0ICrxFf-IUxEB-21" value="&lt;font face=&quot;Lucida Console&quot;&gt;_baseControl&lt;br&gt;WithTooltip&lt;br&gt;&lt;/font&gt;" style="rounded=1;whiteSpace=wrap;html=1;fillColor=#003300;strokeColor=#B266FF;fontColor=#FFFFFF;strokeWidth=2;" parent="1" vertex="1">
          <mxGeometry x="249" y="580" width="120" height="60" as="geometry" />
        </mxCell>
        <mxCell id="1dqqtLo0ICrxFf-IUxEB-23" value="&lt;font face=&quot;Lucida Console&quot;&gt;Tooltip&lt;/font&gt;" style="rounded=1;whiteSpace=wrap;html=1;fillColor=#003300;strokeColor=#33FF33;fontColor=#FFFFFF;strokeWidth=2;" parent="1" vertex="1">
          <mxGeometry x="389" y="580" width="120" height="60" as="geometry" />
        </mxCell>
        <mxCell id="1dqqtLo0ICrxFf-IUxEB-28" value="" style="edgeStyle=orthogonalEdgeStyle;shape=connector;rounded=1;orthogonalLoop=1;jettySize=auto;html=1;labelBackgroundColor=default;fontFamily=Helvetica;fontSize=12;fontColor=#FFFFFF;endArrow=classic;strokeColor=#FFFF66;strokeWidth=2;exitX=0.5;exitY=0;exitDx=0;exitDy=0;" parent="1" source="1dqqtLo0ICrxFf-IUxEB-24" target="1dqqtLo0ICrxFf-IUxEB-27" edge="1">
          <mxGeometry relative="1" as="geometry" />
        </mxCell>
        <mxCell id="1dqqtLo0ICrxFf-IUxEB-24" value="&lt;font face=&quot;Lucida Console&quot;&gt;Window&lt;/font&gt;" style="rounded=1;whiteSpace=wrap;html=1;fillColor=#003300;strokeColor=#33FF33;fontColor=#FFFFFF;strokeWidth=2;" parent="1" vertex="1">
          <mxGeometry x="-40" y="460" width="120" height="60" as="geometry" />
        </mxCell>
        <mxCell id="1dqqtLo0ICrxFf-IUxEB-27" value="&lt;font face=&quot;Lucida Console&quot;&gt;MessageBox&lt;br&gt;Window&lt;/font&gt;" style="rounded=1;whiteSpace=wrap;html=1;fillColor=#003300;strokeColor=#33FF33;fontColor=#FFFFFF;strokeWidth=2;" parent="1" vertex="1">
          <mxGeometry x="-40" y="340" width="120" height="60" as="geometry" />
        </mxCell>
        <mxCell id="1dqqtLo0ICrxFf-IUxEB-34" value="" style="edgeStyle=orthogonalEdgeStyle;shape=connector;rounded=1;orthogonalLoop=1;jettySize=auto;html=1;labelBackgroundColor=default;fontFamily=Helvetica;fontSize=12;fontColor=#FFFFFF;endArrow=classic;strokeColor=#FFFF66;strokeWidth=2;exitX=0.5;exitY=0;exitDx=0;exitDy=0;" parent="1" source="1dqqtLo0ICrxFf-IUxEB-29" target="1dqqtLo0ICrxFf-IUxEB-33" edge="1">
          <mxGeometry relative="1" as="geometry" />
        </mxCell>
        <mxCell id="1dqqtLo0ICrxFf-IUxEB-36" style="edgeStyle=orthogonalEdgeStyle;shape=connector;rounded=1;orthogonalLoop=1;jettySize=auto;html=1;exitX=0.5;exitY=0;exitDx=0;exitDy=0;entryX=0.5;entryY=1;entryDx=0;entryDy=0;labelBackgroundColor=default;fontFamily=Helvetica;fontSize=12;fontColor=#FFFFFF;endArrow=classic;strokeColor=#FFFF66;strokeWidth=2;" parent="1" source="1dqqtLo0ICrxFf-IUxEB-29" target="1dqqtLo0ICrxFf-IUxEB-35" edge="1">
          <mxGeometry relative="1" as="geometry" />
        </mxCell>
        <mxCell id="XNWoXiLgSCH48UPZ1F3W-2" style="edgeStyle=orthogonalEdgeStyle;rounded=1;orthogonalLoop=1;jettySize=auto;html=1;exitX=0.5;exitY=0;exitDx=0;exitDy=0;entryX=0.5;entryY=1;entryDx=0;entryDy=0;fontSize=12;strokeColor=#FFFF66;fontColor=#FFFFFF;strokeWidth=2;" parent="1" source="1dqqtLo0ICrxFf-IUxEB-29" target="XNWoXiLgSCH48UPZ1F3W-1" edge="1">
          <mxGeometry relative="1" as="geometry" />
        </mxCell>
        <mxCell id="hVP8yvyoXI02nTNWTHge-12" style="edgeStyle=orthogonalEdgeStyle;shape=connector;rounded=1;orthogonalLoop=1;jettySize=auto;html=1;exitX=0.5;exitY=0;exitDx=0;exitDy=0;entryX=0.5;entryY=1;entryDx=0;entryDy=0;labelBackgroundColor=default;strokeColor=#FFFF66;strokeWidth=2;align=center;verticalAlign=middle;fontFamily=Helvetica;fontSize=12;fontColor=#FFFFFF;endArrow=classic;" edge="1" parent="1" source="1dqqtLo0ICrxFf-IUxEB-29" target="hVP8yvyoXI02nTNWTHge-11">
          <mxGeometry relative="1" as="geometry" />
        </mxCell>
        <mxCell id="1dqqtLo0ICrxFf-IUxEB-29" value="&lt;font face=&quot;Lucida Console&quot;&gt;_baseClickable&lt;br&gt;Control&lt;br&gt;&lt;/font&gt;" style="rounded=1;whiteSpace=wrap;html=1;fillColor=#003300;strokeColor=#B266FF;fontColor=#FFFFFF;strokeWidth=2;" parent="1" vertex="1">
          <mxGeometry x="249" y="460" width="120" height="60" as="geometry" />
        </mxCell>
        <mxCell id="1dqqtLo0ICrxFf-IUxEB-31" value="&lt;font face=&quot;Lucida Console&quot;&gt;Label&lt;br&gt;&lt;/font&gt;" style="rounded=1;whiteSpace=wrap;html=1;fillColor=#003300;strokeColor=#33FF33;fontColor=#FFFFFF;strokeWidth=2;" parent="1" vertex="1">
          <mxGeometry x="389" y="460" width="120" height="60" as="geometry" />
        </mxCell>
        <mxCell id="1dqqtLo0ICrxFf-IUxEB-38" value="" style="edgeStyle=orthogonalEdgeStyle;shape=connector;rounded=1;orthogonalLoop=1;jettySize=auto;html=1;labelBackgroundColor=default;fontFamily=Helvetica;fontSize=12;fontColor=#FFFFFF;endArrow=classic;strokeColor=#FFFF66;strokeWidth=2;exitX=0.5;exitY=0;exitDx=0;exitDy=0;" parent="1" source="1dqqtLo0ICrxFf-IUxEB-33" target="1dqqtLo0ICrxFf-IUxEB-37" edge="1">
          <mxGeometry relative="1" as="geometry" />
        </mxCell>
        <mxCell id="1dqqtLo0ICrxFf-IUxEB-33" value="&lt;font face=&quot;Lucida Console&quot;&gt;TextButton&lt;br&gt;&lt;/font&gt;" style="rounded=1;whiteSpace=wrap;html=1;fillColor=#003300;strokeColor=#33FF33;fontColor=#FFFFFF;strokeWidth=2;" parent="1" vertex="1">
          <mxGeometry x="389" y="340" width="120" height="60" as="geometry" />
        </mxCell>
        <mxCell id="1dqqtLo0ICrxFf-IUxEB-35" value="&lt;font face=&quot;Lucida Console&quot;&gt;InputBox&lt;br&gt;&lt;/font&gt;" style="rounded=1;whiteSpace=wrap;html=1;fillColor=#003300;strokeColor=#33FF33;fontColor=#FFFFFF;strokeWidth=2;" parent="1" vertex="1">
          <mxGeometry x="529" y="340" width="120" height="60" as="geometry" />
        </mxCell>
        <mxCell id="1dqqtLo0ICrxFf-IUxEB-37" value="&lt;font face=&quot;Lucida Console&quot;&gt;ImageButton&lt;br&gt;&lt;/font&gt;" style="rounded=1;whiteSpace=wrap;html=1;fillColor=#003300;strokeColor=#33FF33;fontColor=#FFFFFF;strokeWidth=2;" parent="1" vertex="1">
          <mxGeometry x="389" y="220" width="120" height="60" as="geometry" />
        </mxCell>
        <mxCell id="XNWoXiLgSCH48UPZ1F3W-5" style="edgeStyle=orthogonalEdgeStyle;shape=connector;rounded=1;orthogonalLoop=1;jettySize=auto;html=1;exitX=0.5;exitY=0;exitDx=0;exitDy=0;entryX=0.5;entryY=1;entryDx=0;entryDy=0;labelBackgroundColor=default;strokeColor=#FFFF66;strokeWidth=2;align=center;verticalAlign=middle;fontFamily=Helvetica;fontSize=12;fontColor=#FFFFFF;endArrow=classic;" parent="1" source="XNWoXiLgSCH48UPZ1F3W-1" target="XNWoXiLgSCH48UPZ1F3W-3" edge="1">
          <mxGeometry relative="1" as="geometry" />
        </mxCell>
        <mxCell id="XNWoXiLgSCH48UPZ1F3W-6" style="edgeStyle=orthogonalEdgeStyle;shape=connector;rounded=1;orthogonalLoop=1;jettySize=auto;html=1;exitX=0.5;exitY=0;exitDx=0;exitDy=0;entryX=0.5;entryY=1;entryDx=0;entryDy=0;labelBackgroundColor=default;strokeColor=#FFFF66;strokeWidth=2;align=center;verticalAlign=middle;fontFamily=Helvetica;fontSize=12;fontColor=#FFFFFF;endArrow=classic;" parent="1" source="XNWoXiLgSCH48UPZ1F3W-1" target="XNWoXiLgSCH48UPZ1F3W-4" edge="1">
          <mxGeometry relative="1" as="geometry" />
        </mxCell>
        <mxCell id="XNWoXiLgSCH48UPZ1F3W-1" value="&lt;font face=&quot;Lucida Console&quot;&gt;_baseCheckable&lt;br&gt;Control&lt;br&gt;&lt;/font&gt;" style="rounded=1;whiteSpace=wrap;html=1;fillColor=#003300;strokeColor=#B266FF;fontColor=#FFFFFF;strokeWidth=2;" parent="1" vertex="1">
          <mxGeometry x="669" y="340" width="120" height="60" as="geometry" />
        </mxCell>
        <mxCell id="XNWoXiLgSCH48UPZ1F3W-3" value="&lt;font face=&quot;Lucida Console&quot;&gt;CheckBox&lt;br&gt;&lt;/font&gt;" style="rounded=1;whiteSpace=wrap;html=1;fillColor=#003300;strokeColor=#33FF33;fontColor=#FFFFFF;strokeWidth=2;" parent="1" vertex="1">
          <mxGeometry x="529" y="220" width="120" height="60" as="geometry" />
        </mxCell>
        <mxCell id="XNWoXiLgSCH48UPZ1F3W-4" value="&lt;font face=&quot;Lucida Console&quot;&gt;RadioButton&lt;br&gt;&lt;/font&gt;" style="rounded=1;whiteSpace=wrap;html=1;fillColor=#003300;strokeColor=#33FF33;fontColor=#FFFFFF;strokeWidth=2;" parent="1" vertex="1">
          <mxGeometry x="669" y="220" width="120" height="60" as="geometry" />
        </mxCell>
        <mxCell id="hVP8yvyoXI02nTNWTHge-7" style="edgeStyle=orthogonalEdgeStyle;shape=connector;rounded=1;orthogonalLoop=1;jettySize=auto;html=1;exitX=0.5;exitY=0;exitDx=0;exitDy=0;entryX=0.5;entryY=1;entryDx=0;entryDy=0;labelBackgroundColor=default;strokeColor=#FFFF66;strokeWidth=2;align=center;verticalAlign=middle;fontFamily=Helvetica;fontSize=12;fontColor=#FFFFFF;endArrow=classic;" edge="1" parent="1" source="hVP8yvyoXI02nTNWTHge-1" target="hVP8yvyoXI02nTNWTHge-6">
          <mxGeometry relative="1" as="geometry" />
        </mxCell>
        <mxCell id="hVP8yvyoXI02nTNWTHge-10" style="edgeStyle=orthogonalEdgeStyle;shape=connector;rounded=1;orthogonalLoop=1;jettySize=auto;html=1;exitX=0.5;exitY=0;exitDx=0;exitDy=0;entryX=0.5;entryY=1;entryDx=0;entryDy=0;labelBackgroundColor=default;strokeColor=#FFFF66;strokeWidth=2;align=center;verticalAlign=middle;fontFamily=Helvetica;fontSize=12;fontColor=#FFFFFF;endArrow=classic;" edge="1" parent="1" source="hVP8yvyoXI02nTNWTHge-1" target="1dqqtLo0ICrxFf-IUxEB-24">
          <mxGeometry relative="1" as="geometry" />
        </mxCell>
        <mxCell id="hVP8yvyoXI02nTNWTHge-1" value="&lt;font face=&quot;Lucida Console&quot;&gt;_baseContainer&lt;br&gt;Control&lt;/font&gt;" style="rounded=1;whiteSpace=wrap;html=1;fillColor=#003300;strokeColor=#B266FF;fontColor=#FFFFFF;strokeWidth=2;" vertex="1" parent="1">
          <mxGeometry x="99" y="580" width="120" height="60" as="geometry" />
        </mxCell>
        <mxCell id="hVP8yvyoXI02nTNWTHge-9" style="edgeStyle=orthogonalEdgeStyle;shape=connector;rounded=1;orthogonalLoop=1;jettySize=auto;html=1;exitX=0.5;exitY=0;exitDx=0;exitDy=0;entryX=0.5;entryY=1;entryDx=0;entryDy=0;labelBackgroundColor=default;strokeColor=#FFFF66;strokeWidth=2;align=center;verticalAlign=middle;fontFamily=Helvetica;fontSize=12;fontColor=#FFFFFF;endArrow=classic;" edge="1" parent="1" source="hVP8yvyoXI02nTNWTHge-6" target="hVP8yvyoXI02nTNWTHge-8">
          <mxGeometry relative="1" as="geometry" />
        </mxCell>
        <mxCell id="hVP8yvyoXI02nTNWTHge-6" value="&lt;font face=&quot;Lucida Console&quot;&gt;Panel&lt;/font&gt;" style="rounded=1;whiteSpace=wrap;html=1;fillColor=#003300;strokeColor=#33FF33;fontColor=#FFFFFF;strokeWidth=2;" vertex="1" parent="1">
          <mxGeometry x="99" y="460" width="120" height="60" as="geometry" />
        </mxCell>
        <mxCell id="hVP8yvyoXI02nTNWTHge-8" value="&lt;font face=&quot;Lucida Console&quot;&gt;UiRootPanel&lt;/font&gt;" style="rounded=1;whiteSpace=wrap;html=1;fillColor=#003300;strokeColor=#33FF33;fontColor=#FFFFFF;strokeWidth=2;" vertex="1" parent="1">
          <mxGeometry x="99" y="340" width="120" height="60" as="geometry" />
        </mxCell>
        <mxCell id="hVP8yvyoXI02nTNWTHge-11" value="&lt;font face=&quot;Lucida Console&quot;&gt;Slider&lt;br&gt;&lt;/font&gt;" style="rounded=1;whiteSpace=wrap;html=1;fillColor=#003300;strokeColor=#33FF33;fontColor=#FFFFFF;strokeWidth=2;" vertex="1" parent="1">
          <mxGeometry x="249" y="340" width="120" height="60" as="geometry" />
        </mxCell>
      </root>
    </mxGraphModel>
  </diagram>
</mxfile>
